<svg width="32" height="32" viewBox="0 0 32 32" fill="none" xmlns="http://www.w3.org/2000/svg">
  <defs>
    <linearGradient id="logoGradient" x1="0%" y1="0%" x2="100%" y2="100%">
      <stop offset="0%" style="stop-color:#6366f1;stop-opacity:1" />
      <stop offset="100%" style="stop-color:#ec4899;stop-opacity:1" />
    </linearGradient>
  </defs>
  
  <!-- Main circle background -->
  <circle cx="16" cy="16" r="15" fill="url(#logoGradient)" stroke="white" stroke-width="2"/>
  
  <!-- House icon -->
  <path d="M8 18L16 10L24 18V26C24 26.5523 23.5523 27 23 27H9C8.44772 27 8 26.5523 8 26V18Z" fill="white" stroke="white" stroke-width="1"/>
  
  <!-- Roof -->
  <path d="M6 16L16 6L26 16" stroke="white" stroke-width="2" stroke-linecap="round" stroke-linejoin="round"/>
  
  <!-- Door -->
  <rect x="13" y="21" width="6" height="6" fill="url(#logoGradient)" rx="1"/>
  
  <!-- Window -->
  <rect x="10" y="16" width="3" height="3" fill="url(#logoGradient)" rx="0.5"/>
  <rect x="19" y="16" width="3" height="3" fill="url(#logoGradient)" rx="0.5"/>
  
  <!-- AI sparkle effect -->
  <circle cx="22" cy="10" r="1" fill="white" opacity="0.8"/>
  <circle cx="25" cy="13" r="0.5" fill="white" opacity="0.6"/>
  <circle cx="20" cy="8" r="0.5" fill="white" opacity="0.7"/>
</svg>
